<?xml version="1.0" encoding="UTF-8"?>
<svg id="Layer_1" xmlns="http://www.w3.org/2000/svg" xmlns:xlink="http://www.w3.org/1999/xlink" version="1.1" viewBox="0 0 130.78 120.67">
  <!-- Generator: Adobe Illustrator 29.6.1, SVG Export Plug-In . SVG Version: 2.1.1 Build 9)  -->
  <defs>
    <style>
      .st0 {
        fill: url(#linear-gradient2);
      }

      .st1 {
        fill: url(#linear-gradient1);
      }

      .st2 {
        fill: url(#linear-gradient);
      }
    </style>
    <linearGradient id="linear-gradient" x1="40.88" y1="8.18" x2="40.88" y2="100.81" gradientUnits="userSpaceOnUse">
      <stop offset=".03" stop-color="#eee"/>
      <stop offset=".98" stop-color="#fff"/>
    </linearGradient>
    <linearGradient id="linear-gradient1" x1="65.57" y1="8.18" x2="65.57" y2="100.81" xlink:href="#linear-gradient"/>
    <linearGradient id="linear-gradient2" x1="99.52" y1="8.18" x2="99.52" y2="100.81" xlink:href="#linear-gradient"/>
  </defs>
  <path class="st2" d="M28.53,44.62c-5.11-5.11-13.41-5.11-18.52,0h0c-5.11,5.11-5.11,13.41,0,18.52l43.21,43.21c5.11,5.11,13.41,5.11,18.52,0h0c5.11-5.11,5.11-13.41,0-18.52L28.53,44.62Z"/>
  <path class="st1" d="M53.23,19.93c-5.11-5.11-13.41-5.11-18.52,0h0c-5.11,5.11-5.11,13.41,0,18.52l43.21,43.21c5.11,5.11,13.41,5.11,18.52,0h0c5.11-5.11,5.11-13.41,0-18.52L53.23,19.93Z"/>
  <path class="st0" d="M121.13,38.46l-24.69-24.69c-5.11-5.11-13.41-5.11-18.52,0h0c-5.11,5.11-5.11,13.41,0,18.52l24.69,24.69c5.11,5.11,13.41,5.11,18.52,0h0c5.11-5.11,5.11-13.41,0-18.52Z"/>
</svg>